<svg version="1.2" xmlns="http://www.w3.org/2000/svg" viewBox="0 0 130 56" width="130" height="56">
	<title>logo_new</title>
	<defs>
		<clipPath clipPathUnits="userSpaceOnUse" id="cp1">
			<path d="m14.52 8.89h20.1v38.61h-20.1z"/>
		</clipPath>
		<clipPath clipPathUnits="userSpaceOnUse" id="cp2">
			<path d="m14.58 12.47h1.71v4.23h-1.71z"/>
		</clipPath>
		<clipPath clipPathUnits="userSpaceOnUse" id="cp3">
			<path d="m25.22 26.48h4.16v1.71h-4.16z"/>
		</clipPath>
		<clipPath clipPathUnits="userSpaceOnUse" id="cp4">
			<path d="m14.09 38.4h3.9v3.4h-3.9z"/>
		</clipPath>
		<clipPath clipPathUnits="userSpaceOnUse" id="cp5">
			<path d="m14.09 36.69h3.9v3.41h-3.9z"/>
		</clipPath>
		<clipPath clipPathUnits="userSpaceOnUse" id="cp6">
			<path d="m14.09 40.1h3.9v1.7h-3.9z"/>
		</clipPath>
		<clipPath clipPathUnits="userSpaceOnUse" id="cp7">
			<path d="m14.09 36.27h1.34v1.7h-1.34z"/>
		</clipPath>
		<clipPath clipPathUnits="userSpaceOnUse" id="cp8">
			<path d="m14.09 41.8h2.2v1.3h-2.2z"/>
		</clipPath>
		<clipPath clipPathUnits="userSpaceOnUse" id="cp9">
			<path d="m14.09 17.98h9.85v18.29h-9.85z"/>
		</clipPath>
		<clipPath clipPathUnits="userSpaceOnUse" id="cp10">
			<path d="m0.33 25.63h4.47v1.71h-4.47z"/>
		</clipPath>
		<clipPath clipPathUnits="userSpaceOnUse" id="cp11">
			<path d="m10.33 38.4h4.04v3.4h-4.04z"/>
		</clipPath>
		<clipPath clipPathUnits="userSpaceOnUse" id="cp12">
			<path d="m10.33 36.69h4.04v3.41h-4.04z"/>
		</clipPath>
		<clipPath clipPathUnits="userSpaceOnUse" id="cp13">
			<path d="m12.88 40.1h1.49v1.7h-1.49z"/>
		</clipPath>
		<clipPath clipPathUnits="userSpaceOnUse" id="cp14">
			<path d="m10.33 36.27h4.04v1.7h-4.04z"/>
		</clipPath>
		<clipPath clipPathUnits="userSpaceOnUse" id="cp15">
			<path d="m12.03 41.8h2.34v1.3h-2.34z"/>
		</clipPath>
		<clipPath clipPathUnits="userSpaceOnUse" id="cp16">
			<path d="m6.08 17.98h8.29v18.29h-8.29z"/>
		</clipPath>
	</defs>
	<style>
		.s0 { fill: #5d13af } 
		.s1 { fill: #cbc9c9 } 
	</style>
	<g id="Clip-Path" clip-path="url(#cp1)">
		<g id="Layer">
			<path id="Layer" class="s0" d="m14.4 46.8v-37.1q0-0.2 0.1-0.3 0.1-0.2 0.2-0.3 0.1-0.1 0.2-0.2 0.2 0 0.4 0 0.9 0 1.9 0.1 0.9 0.1 1.8 0.2 1 0.2 1.9 0.5 0.9 0.3 1.8 0.6 0.8 0.4 1.7 0.9 0.8 0.4 1.6 0.9 0.8 0.6 1.5 1.2 0.8 0.6 1.4 1.2 0.7 0.7 1.3 1.5 0.6 0.7 1.2 1.5 0.5 0.8 0.9 1.6 0.5 0.8 0.8 1.7 0.4 0.9 0.7 1.8 0.3 0.9 0.4 1.9 0.2 0.9 0.3 1.8 0.1 1 0.1 1.9 0 1-0.1 1.9-0.1 1-0.3 1.9-0.1 0.9-0.4 1.9-0.3 0.9-0.7 1.7-0.3 0.9-0.8 1.8-0.4 0.8-0.9 1.6-0.6 0.8-1.2 1.5-0.6 0.8-1.3 1.4-0.6 0.7-1.4 1.3-0.7 0.6-1.5 1.1-0.8 0.6-1.6 1-0.9 0.5-1.7 0.8-0.9 0.4-1.8 0.7-0.9 0.2-1.9 0.4-0.9 0.2-1.8 0.3-1 0.1-1.9 0.1-0.2 0-0.3-0.1-0.2 0-0.3-0.1-0.1-0.2-0.2-0.3-0.1-0.2-0.1-0.3z"/>
		</g>
	</g>
	<g id="Clip-Path" clip-path="url(#cp2)">
		<g id="Layer">
			<path id="Layer" class="s1" d="m15.7 16.5l0.5-3.2c0.1-0.3 0-0.6-0.3-0.7q-0.1-0.1-0.4-0.1-0.2 0-0.3 0.1c-0.3 0.2-0.3 0.5-0.3 0.7z"/>
		</g>
	</g>
	<path id="Layer" class="s1" d="m22.9 15.7c0.1-0.2 0.2-0.5 0-0.8q-0.1-0.1-0.2-0.3-0.2 0-0.4 0c-0.3 0-0.5 0.2-0.6 0.5l-0.9 3.1z"/>
	<path id="Layer" class="s1" d="m27.8 20.5q0.1-0.2-0.1-0.4-0.1-0.2-0.3-0.3c-0.2-0.1-0.5 0-0.7 0.2l-2.4 2.2h0.1l3-1.1c0.3-0.1 0.4-0.4 0.4-0.6z"/>
	<g id="Clip-Path" clip-path="url(#cp3)">
		<g id="Layer">
			<path id="Layer" class="s1" d="m29.4 27.3q0-0.2-0.1-0.3c-0.2-0.3-0.4-0.4-0.7-0.3l-3.2 0.8 3.2 0.5c0.3 0.1 0.6-0.1 0.7-0.3q0.1-0.2 0.1-0.4z"/>
		</g>
	</g>
	<g id="Clip-Path" clip-path="url(#cp4)">
		<g id="Layer">
			<path id="Layer" class="s1" d="m17.5 38.6q-0.1 0-0.1 0l-1 0.3c-1.7 0.5-3.5 1-5.2 1.4-0.2 0.1-0.3 0.2-0.3 0.5q0 0 0 0.1c0 0.6 0.2 0.7 0.4 0.7q0.1 0 0.4-0.1 2.7-0.7 5.4-1.5c0.2-0.1 0.4-0.3 0.5-0.5 0.1-0.3 0.1-0.6 0-0.8-0.1-0.1-0.1-0.1-0.1-0.1z"/>
		</g>
	</g>
	<g id="Clip-Path" clip-path="url(#cp5)">
		<g id="Layer">
			<path id="Layer" class="s1" d="m10.9 39.1c0 0.7 0.2 0.7 0.3 0.7q0 0 0 0 0.1 0 0.4-0.1 0.8-0.3 1.7-0.5c1.3-0.4 2.6-0.7 3.9-1.1 0.3-0.1 0.4-0.2 0.4-0.4 0.1-0.4 0.1-0.7-0.1-0.9q-0.1-0.1-0.1-0.1-0.1 0-0.1 0h-0.1c-1.6 0.5-3.7 1.1-5.7 1.7-0.7 0.2-0.6 0.5-0.6 0.7z"/>
		</g>
	</g>
	<g id="Clip-Path" clip-path="url(#cp6)">
		<g id="Layer">
			<path id="Layer" class="s1" d="m13.3 41.6c0.5 0 1.2 0 1.7 0q0.6 0 1.1 0 0.3 0 0.6 0 0.7 0 0.9-0.3 0.2-0.2 0-0.9z"/>
		</g>
	</g>
	<g id="Clip-Path" clip-path="url(#cp7)">
		<g id="Layer">
			<path id="Layer" class="s1" d="m11.5 36.6h-0.2c-0.2 0-0.3 0.2-0.3 0.3-0.1 0.3-0.1 0.7 0 1l4.4-1.2c-1.1 0-2.8-0.1-3.9-0.1z"/>
		</g>
	</g>
	<g id="Clip-Path" clip-path="url(#cp8)">
		<g id="Layer">
			<path id="Layer" class="s1" d="m12.5 42.2q0 0.4 0.2 0.6 0.3 0.3 0.7 0.3c0.1 0 0.5 0 0.9 0 0.4 0 0.7 0 0.8 0q0.5 0 0.7-0.3 0.2-0.2 0.2-0.6z"/>
		</g>
	</g>
	<g id="Clip-Path" clip-path="url(#cp9)">
		<g id="Layer">
			<path id="Layer" fill-rule="evenodd" class="s1" d="m22.9 25.3c0.9 0.9 1 2.1 0.1 3.1-0.2 0.2-0.2 0.5-0.2 0.8 0 1.2-0.5 2.1-1.5 2.6-0.4 0.2-0.6 0.5-0.7 0.9-0.2 0.5-0.5 0.9-0.9 1.1-0.8 0.2-0.8 0.8-0.8 1.3q0 0.3-0.2 0.5-0.2 0.3-0.5 0.3h-7.8c-0.4 0-0.7-0.3-0.7-0.7q0-0.1 0-0.1c0-1.7-0.6-3.2-1.8-4.8q-1.9-2.7-1.3-5.9c0.7-3.1 3.5-5.6 6.6-5.8 0.5 0 0.8 0 0.9 0.2 0.2 0.1 0.2 0.3 0.2 0.8 0 2.1 0 7.6 0 9.7q0 2.8 0 5.6h0.6q0-2.5 0-5v-2.1-0.1q0-1 0-2.1c0-1.7 0-3.4 0-5.1 0-1.1 0.5-1.8 1.4-2.2 1-0.3 1.9 0 2.6 0.8 0.1 0.2 0.3 0.3 0.6 0.4 1.2 0.2 2.1 1.2 2.1 2.5 0 0.3 0 0.5 0.2 0.7q0.9 0.8 0.9 1.9c0 0.3 0 0.5 0.2 0.7zm-9.6-5.7c-1.3 0.1-2.4 0.5-3.5 1.4-2.7 2.2-3.1 6.2-0.9 9 0.9 1.2 1.5 2.7 1.7 4.5q0 0.1 0 0.3 0 0 0 0.1c0.3 0 1.1 0 1.5 0h1.2zm9 6.4q0 0-0.1 0.1-0.1 0.1-0.1 0.2-0.4 0.4-0.7 0-0.3-0.2 0-0.6 0.6-0.8 0.3-1.7-0.2-0.4-0.5-0.6c-0.3 0.3-0.5 0.5-0.4 1q0 0.4-0.3 0.9c-0.1 0.2-0.3 0.4-0.6 0.3q-0.4-0.2-0.2-0.7 0 0 0-0.1 0.1-0.1 0.1-0.3 0.1-0.4-0.2-0.8c-0.2-0.2-0.5-0.3-0.9-0.3h-0.1c-0.2 0-0.4 0.1-0.5-0.1q-0.1-0.1-0.2-0.3c0-0.4 0.4-0.5 0.7-0.5 0.6-0.1 1.1 0 1.6 0.5 0.6-0.7 0.6-1.6 0-2.2-0.5-0.6-1.5-0.7-2.2-0.2q-0.1 0-0.2 0.1 0 0.1-0.1 0.2-0.4 0.2-0.6-0.1-0.3-0.3 0-0.6c0.1-0.2 0.4-0.4 0.6-0.5q0.2-0.1 0.3-0.2-0.5-0.6-1.3-0.4c-0.5 0.2-0.8 0.6-0.8 1.1q0 0.2-0.1 0.5c0 0.5-0.1 1.1 0.3 1.5 0.1 0.1 0 0.3 0 0.4-0.3 0.5-0.3 1.1-0.3 1.7q0 0.4 0 0.8 0.1 0 0.2 0 0.3 0 0.5 0c0.3 0 0.5 0.1 0.5 0.4q0 0.2-0.1 0.3-0.1 0.1-0.3 0.1-0.5 0.1-0.7 0.4-0.1 0.2-0.1 0.6 0.1 0.2 0 0.5c0 0.3-0.1 0.6 0.3 0.8 0.2 0.1 0.2 0.4 0.1 0.6-0.5 1-0.4 1.7 0.5 2.4q0.1 0.1 0.2 0.1c0.2 0.1 0.4 0.2 0.4 0.4q0 0.2-0.1 0.4-0.2 0.2-0.3 0.2c-0.2 0-0.4-0.1-0.6-0.3q-0.1 0-0.2-0.1 0 0-0.1-0.1-0.1 0-0.1-0.1v3.1h2c0.1-0.1 0.1-0.3 0.1-0.5q0-0.1 0-0.2c-0.1-0.1-0.2-0.1-0.3-0.1q-0.1-0.1-0.2-0.1-0.5-0.3-0.3-0.7c0.1-0.3 0.4-0.3 0.6-0.2 0.7 0.2 1.3 0.1 1.6-0.2 0.4-0.3 0.4-0.9 0.3-1.6-0.1-0.2-0.1-0.5 0.2-0.7q0.4-0.1 0.6 0.3 0 0 0.1 0.1 0 0.1 0.1 0.2c0.8-0.4 1.2-1.1 1.1-2-0.3 0-0.5 0.1-0.7 0.4-0.1 0.1-0.3 0.2-0.4 0.2q-0.2 0-0.4-0.1c-0.1-0.2-0.2-0.4 0.1-0.7q0.3-0.4 0.2-0.6 0-0.3-0.4-0.5-0.4-0.3-0.2-0.7 0.2-0.3 0.7-0.1c0.4 0.1 0.6 0.4 0.9 1.1 0.5-0.1 0.9-0.4 1-0.8 0.2-0.4 0.1-0.9-0.3-1.3z"/>
		</g>
	</g>
	<g id="Clip-Path" clip-path="url(#cp10)">
		<g id="Layer">
			<path id="Layer" class="s0" d="m1.1 25.7c-0.2-0.1-0.5 0.1-0.6 0.3q-0.1 0.2-0.1 0.4 0 0.2 0.1 0.3c0.2 0.3 0.4 0.4 0.7 0.3l3.2-0.8z"/>
		</g>
	</g>
	<path id="Layer" class="s0" d="m2.8 19q-0.2 0.1-0.3 0.3-0.1 0.1 0 0.3c0 0.3 0.2 0.5 0.4 0.6l3.2 1v-0.1l-2.5-2c-0.3-0.2-0.6-0.3-0.8-0.1z"/>
	<path id="Layer" class="s0" d="m10.1 17.6l-1.2-3.1c0-0.2-0.3-0.4-0.6-0.4q-0.2 0-0.3 0.1-0.2 0.1-0.3 0.3c-0.1 0.2 0 0.5 0.1 0.7z"/>
	<g id="Clip-Path" clip-path="url(#cp11)">
		<g id="Layer">
			<path id="Layer" class="s0" d="m17.1 38.6q0 0-0.1 0l-0.9 0.3c-1.7 0.5-3.5 1-5.2 1.4-0.3 0.1-0.3 0.2-0.3 0.5q0 0 0 0.1c0 0.6 0.2 0.7 0.4 0.7q0.1 0 0.3-0.1 2.7-0.7 5.4-1.5c0.3-0.1 0.5-0.3 0.6-0.5 0.1-0.3 0.1-0.6 0-0.8-0.1-0.1-0.1-0.1-0.2-0.1z"/>
		</g>
	</g>
	<g id="Clip-Path" clip-path="url(#cp12)">
		<g id="Layer">
			<path id="Layer" class="s0" d="m10.6 39.1c0 0.7 0.1 0.7 0.3 0.7q0.1 0 0.3-0.1 0.9-0.3 1.8-0.5c1.2-0.4 2.6-0.7 3.9-1.1 0.3-0.1 0.4-0.2 0.4-0.4 0-0.4 0.1-0.7-0.1-0.9q-0.1-0.1-0.1-0.1-0.1 0-0.2 0c-1.7 0.5-3.7 1.1-5.7 1.7-0.7 0.2-0.6 0.5-0.6 0.7z"/>
		</g>
	</g>
	<g id="Clip-Path" clip-path="url(#cp13)">
		<g id="Layer">
			<path id="Layer" class="s0" d="m13 41.6c0.5 0 1.2 0 1.7 0q0.6 0 1 0 0.4 0 0.7 0 0.7 0 0.9-0.3 0.2-0.2-0.1-0.9z"/>
		</g>
	</g>
	<g id="Clip-Path" clip-path="url(#cp14)">
		<g id="Layer">
			<path id="Layer" class="s0" d="m11.1 36.6h-0.1c-0.2 0-0.3 0.2-0.3 0.3-0.1 0.3-0.2 0.7 0 1l4.4-1.2c-1.1 0-2.8-0.1-4-0.1z"/>
		</g>
	</g>
	<g id="Clip-Path" clip-path="url(#cp15)">
		<g id="Layer">
			<path id="Layer" class="s0" d="m12.2 42.2q0 0.4 0.2 0.6 0.2 0.3 0.7 0.3c0.1 0 0.5 0 0.9 0 0.3 0 0.7 0 0.8 0q0.5 0 0.7-0.3 0.2-0.2 0.2-0.6z"/>
		</g>
	</g>
	<g id="Clip-Path" clip-path="url(#cp16)">
		<g id="Layer">
			<path id="Layer" fill-rule="evenodd" class="s0" d="m22.6 25.3c0.9 0.9 1 2.1 0.1 3.1-0.2 0.2-0.2 0.5-0.2 0.8 0 1.2-0.6 2.1-1.5 2.6-0.4 0.2-0.6 0.5-0.8 0.9-0.1 0.5-0.4 0.9-0.8 1.1-0.8 0.2-0.8 0.8-0.8 1.3q0 0.3-0.2 0.5-0.2 0.3-0.5 0.3h-7.9c-0.3 0-0.6-0.3-0.7-0.7q0-0.1 0-0.1c0-1.7-0.6-3.2-1.7-4.8q-1.9-2.7-1.3-5.9c0.7-3.1 3.4-5.6 6.6-5.8 0.5 0 0.7 0 0.9 0.2 0.1 0.1 0.2 0.3 0.2 0.8 0 2.1 0 7.6 0 9.7q0 2.8 0 5.6h0.6c0-1.7 0-5.5 0-7.1v-0.1q0-1 0-2.1c0-1.7 0-3.4 0-5.1 0-1.1 0.5-1.8 1.4-2.2 0.9-0.3 1.9 0 2.5 0.8 0.2 0.2 0.4 0.3 0.7 0.4 1.2 0.2 2 1.2 2 2.5 0 0.3 0.1 0.5 0.3 0.7q0.9 0.8 0.8 1.9c0 0.3 0.1 0.5 0.3 0.7zm-9.6-5.7c-1.3 0.1-2.5 0.5-3.5 1.4-2.8 2.2-3.2 6.2-1 9 1 1.2 1.6 2.7 1.8 4.5q0 0.1 0 0.3 0 0 0 0.1c0.3 0 1.1 0 1.5 0h1.2zm9 6.4q-0.1 0-0.1 0.1-0.1 0.1-0.2 0.2-0.3 0.4-0.7 0-0.3-0.2 0-0.6 0.6-0.8 0.3-1.7-0.1-0.4-0.4-0.6c-0.3 0.3-0.5 0.5-0.5 1q0.1 0.4-0.2 0.9c-0.1 0.2-0.3 0.4-0.6 0.3q-0.4-0.2-0.2-0.7 0 0 0-0.1 0.1-0.1 0.1-0.3 0.1-0.4-0.2-0.8c-0.2-0.2-0.6-0.3-0.9-0.3h-0.1c-0.2 0-0.4 0.1-0.6-0.1q-0.1-0.1-0.1-0.3c0-0.4 0.4-0.5 0.7-0.5 0.5-0.1 1.1 0 1.6 0.5 0.5-0.7 0.5-1.6 0-2.2-0.6-0.6-1.5-0.7-2.2-0.2q-0.1 0-0.2 0.1-0.1 0.1-0.1 0.2-0.4 0.2-0.7-0.1-0.2-0.3 0-0.6c0.2-0.2 0.5-0.4 0.7-0.5q0.2-0.1 0.3-0.2-0.5-0.6-1.3-0.4c-0.5 0.2-0.9 0.6-0.9 1.1q0 0.2 0 0.5c-0.1 0.5-0.1 1.1 0.3 1.5 0.1 0.1 0 0.3 0 0.4-0.4 0.5-0.3 1.1-0.3 1.7q0 0.4 0 0.8 0.1 0 0.2 0 0.3 0 0.5 0c0.3 0 0.4 0.1 0.5 0.4q0 0.2-0.1 0.3-0.1 0.1-0.3 0.1-0.5 0.1-0.7 0.4-0.2 0.2-0.1 0.6 0 0.2 0 0.5c-0.1 0.3-0.1 0.6 0.3 0.8 0.2 0.1 0.2 0.4 0.1 0.6-0.6 1-0.4 1.7 0.5 2.4q0.1 0.1 0.2 0.1c0.1 0.1 0.3 0.2 0.4 0.4q0 0.2-0.1 0.4-0.2 0.2-0.4 0.2c-0.2 0-0.4-0.1-0.6-0.3q0 0-0.1-0.1-0.1 0-0.2-0.1 0 0-0.1-0.1v3.1h2.1c0.1-0.1 0.1-0.3 0.1-0.5q0-0.1 0-0.2c-0.1-0.1-0.2-0.1-0.3-0.1q-0.2-0.1-0.3-0.1-0.4-0.3-0.3-0.7c0.2-0.3 0.4-0.3 0.7-0.2 0.7 0.2 1.3 0.1 1.6-0.2 0.3-0.3 0.4-0.9 0.3-1.6-0.1-0.2-0.1-0.5 0.2-0.7q0.3-0.1 0.6 0.3 0 0 0 0.1 0.1 0.1 0.1 0.2c0.9-0.4 1.3-1.1 1.2-2-0.3 0-0.5 0.1-0.7 0.4-0.1 0.1-0.3 0.2-0.5 0.2q-0.1 0-0.3-0.1c-0.1-0.2-0.2-0.4 0.1-0.7q0.3-0.4 0.2-0.6 0-0.3-0.4-0.5-0.4-0.3-0.2-0.7 0.2-0.3 0.7-0.1c0.4 0.1 0.6 0.4 0.9 1.1 0.5-0.1 0.9-0.4 1-0.8 0.1-0.4 0-0.9-0.3-1.3z"/>
		</g>
	</g>
	<g id="Layer">
		<g id="Layer">
			<g id="Layer">
				<path id="Layer" class="s0" d="m40.9 12.4h2.7v11h-2.7z"/>
			</g>
		</g>
	</g>
	<g id="Layer">
		<g id="Layer">
			<g id="Layer">
				<path id="Layer" class="s0" d="m54.4 12.4v11h-2.7v-4.5h-4.2v4.5h-2.7v-11h2.7v4.3h4.2v-4.3z"/>
			</g>
		</g>
	</g>
	<g id="Layer">
		<g id="Layer">
			<g id="Layer">
				<path id="Layer" fill-rule="evenodd" class="s0" d="m61.2 23.4l-2.3-4.2h-0.7v4.2h-2.7v-11h4.6q1.3 0 2.2 0.4 0.9 0.5 1.4 1.3 0.4 0.8 0.4 1.7 0 1.1-0.6 2-0.6 0.9-1.8 1.2l2.5 4.4zm-2.9-6.1h1.6q0.8 0 1.1-0.3 0.4-0.4 0.4-1.1 0-0.6-0.4-0.9-0.3-0.4-1.1-0.4h-1.6z"/>
			</g>
		</g>
	</g>
	<g id="Layer">
		<g id="Layer">
			<g id="Layer">
				<path id="Layer" class="s0" d="m69.1 23.5q-1.3 0-2.2-0.4-1-0.4-1.6-1.1-0.5-0.8-0.6-1.9h2.9q0.1 0.6 0.4 1 0.4 0.3 1 0.3 0.6 0 0.9-0.3 0.4-0.3 0.4-0.8 0-0.4-0.3-0.6-0.3-0.3-0.7-0.5-0.4-0.2-1.1-0.4-1.1-0.3-1.8-0.6-0.7-0.4-1.1-1-0.5-0.7-0.5-1.7 0-1.5 1.1-2.4 1.1-0.9 2.9-0.9 1.8 0 2.9 0.9 1.2 0.9 1.2 2.4h-2.9q0-0.5-0.4-0.8-0.3-0.3-0.9-0.3-0.5 0-0.8 0.2-0.3 0.3-0.3 0.8 0 0.5 0.5 0.8 0.5 0.3 1.6 0.6 1.1 0.4 1.7 0.7 0.7 0.4 1.2 1 0.5 0.6 0.5 1.6 0 1-0.5 1.7-0.5 0.8-1.4 1.3-0.9 0.4-2.1 0.4z"/>
			</g>
		</g>
	</g>
	<g id="Layer">
		<g id="Layer">
			<g id="Layer">
				<path id="Layer" class="s0" d="m36.4 33h1.1v5.2h-1.1z"/>
			</g>
		</g>
	</g>
	<g id="Layer">
		<g id="Layer">
			<g id="Layer">
				<path id="Layer" class="s0" d="m41.5 33v3.2l-2.2-3.2h-1v5.2h1.1v-3.2l2.3 3.2h0.9v-5.2z"/>
			</g>
		</g>
	</g>
	<g id="Layer">
		<g id="Layer">
			<g id="Layer">
				<path id="Layer" class="s0" d="m46.7 33v3.2l-2.3-3.2h-0.9v5.2h1v-3.2l2.4 3.2h0.9v-5.2z"/>
			</g>
		</g>
	</g>
	<g id="Layer">
		<g id="Layer">
			<g id="Layer">
				<path id="Layer" fill-rule="evenodd" class="s0" d="m51 38.3c-1.5 0-2.7-1.2-2.7-2.7 0-1.5 1.2-2.7 2.7-2.7 1.5 0 2.8 1.2 2.8 2.7 0 1.5-1.3 2.7-2.8 2.7zm1.6-2.7c0-0.9-0.7-1.6-1.6-1.6-0.9 0-1.6 0.7-1.6 1.6 0 0.9 0.7 1.6 1.6 1.6 0.9 0 1.6-0.7 1.6-1.6z"/>
			</g>
		</g>
	</g>
	<g id="Layer">
		<g id="Layer">
			<g id="Layer">
				<path id="Layer" class="s0" d="m57.5 33l-1.2 3.7-1.3-3.7h-1.3l2 5.2h1.1l1.9-5.2z"/>
			</g>
		</g>
	</g>
	<g id="Layer">
		<g id="Layer">
			<g id="Layer">
				<path id="Layer" fill-rule="evenodd" class="s0" d="m62.1 37.2h-2l-0.4 1h-1.2l2-5.2h1.1l2.1 5.2h-1.3zm-1.6-1h1.3l-0.7-1.8z"/>
			</g>
		</g>
	</g>
	<g id="Layer">
		<g id="Layer">
			<g id="Layer">
				<path id="Layer" class="s0" d="m67.5 33h-4v1.1h1.4v4.1h1.2v-4.1h1.4z"/>
			</g>
		</g>
	</g>
	<g id="Layer">
		<g id="Layer">
			<g id="Layer">
				<path id="Layer" class="s0" d="m67.9 33h1.1v5.2h-1.1z"/>
			</g>
		</g>
	</g>
	<g id="Layer">
		<g id="Layer">
			<g id="Layer">
				<path id="Layer" class="s0" d="m73.1 33l-1.3 3.7-1.3-3.7h-1.2l2 5.2h1l2-5.2z"/>
			</g>
		</g>
	</g>
	<g id="Layer">
		<g id="Layer">
			<g id="Layer">
				<path id="Layer" class="s0" d="m75.7 37.1v-1h1.8v-1h-1.8v-1h2v-1.1h-3.1v5.2h3.1v-1.1z"/>
			</g>
		</g>
	</g>
	<g id="Layer">
		<g id="Layer">
			<g id="Layer">
			</g>
		</g>
	</g>
	<g id="Layer">
		<g id="Layer">
			<g id="Layer">
				<path id="Layer" class="s0" d="m82.8 33v2h-2v-2h-1.1v5.2h1.1v-2.1h2v2.1h1.1v-5.2z"/>
			</g>
		</g>
	</g>
	<g id="Layer">
		<g id="Layer">
			<g id="Layer">
				<path id="Layer" fill-rule="evenodd" class="s0" d="m86.5 36.4h-0.7v1.8h-1.1v-5.2h2c1.1 0 1.8 0.8 1.8 1.7 0 0.7-0.3 1.3-0.9 1.5l1.1 2h-1.2zm-0.7-1.1h0.9c0.4 0 0.7-0.2 0.7-0.6 0-0.4-0.3-0.7-0.7-0.7h-0.9z"/>
			</g>
		</g>
	</g>
	<g id="Layer">
		<g id="Layer">
			<g id="Layer">
			</g>
		</g>
	</g>
	<g id="Layer">
		<g id="Layer">
			<g id="Layer">
				<path id="Layer" class="s0" d="m92.3 38.3c1 0 1.9-0.6 1.9-1.7 0-1.1-1-1.4-1.8-1.6-0.5-0.1-0.9-0.2-0.9-0.6 0-0.3 0.3-0.4 0.7-0.4 0.4 0 0.8 0.2 0.8 0.6h1c0-1-0.6-1.6-1.8-1.6-1.1 0-1.9 0.5-1.9 1.5 0 1.1 1 1.3 1.8 1.5 0.5 0.1 1 0.2 1 0.6 0 0.4-0.4 0.6-0.8 0.6-0.5 0-0.9-0.2-0.9-0.7h-1.1c0 1.1 0.8 1.8 2 1.8z"/>
			</g>
		</g>
	</g>
	<g id="Layer">
		<g id="Layer">
			<g id="Layer">
				<path id="Layer" fill-rule="evenodd" class="s0" d="m97.2 38.3c-1.5 0-2.8-1.2-2.8-2.7 0-1.5 1.3-2.7 2.8-2.7 1.5 0 2.7 1.2 2.7 2.7 0 1.5-1.2 2.7-2.7 2.7zm1.6-2.7c0-0.9-0.8-1.6-1.6-1.6-0.9 0-1.6 0.7-1.6 1.6 0 0.9 0.7 1.6 1.6 1.6 0.8 0 1.6-0.7 1.6-1.6z"/>
			</g>
		</g>
	</g>
	<g id="Layer">
		<g id="Layer">
			<g id="Layer">
				<path id="Layer" class="s0" d="m101.5 37.1v-4.1h-1.1v5.2h3.1v-1.1z"/>
			</g>
		</g>
	</g>
	<g id="Layer">
		<g id="Layer">
			<g id="Layer">
				<path id="Layer" class="s0" d="m105.9 38.3c1.2 0 2.2-0.9 2.2-2.1v-3.2h-1.2v3.2c0 0.6-0.4 1-1 1-0.6 0-1-0.4-1-1v-3.2h-1.1v3.2c0 1.2 0.9 2.1 2.1 2.1z"/>
			</g>
		</g>
	</g>
	<g id="Layer">
		<g id="Layer">
			<g id="Layer">
				<path id="Layer" class="s0" d="m112.3 33h-3.9v1.1h1.4v4.1h1.1v-4.1h1.4z"/>
			</g>
		</g>
	</g>
	<g id="Layer">
		<g id="Layer">
			<g id="Layer">
				<path id="Layer" class="s0" d="m112.7 33h1.1v5.2h-1.1z"/>
			</g>
		</g>
	</g>
	<g id="Layer">
		<g id="Layer">
			<g id="Layer">
				<path id="Layer" fill-rule="evenodd" class="s0" d="m117.1 38.3c-1.5 0-2.7-1.2-2.7-2.7 0-1.5 1.2-2.7 2.7-2.7 1.5 0 2.7 1.2 2.7 2.7 0 1.5-1.2 2.7-2.7 2.7zm1.6-2.7c0-0.9-0.7-1.6-1.6-1.6-0.9 0-1.6 0.7-1.6 1.6 0 0.9 0.7 1.6 1.6 1.6 0.9 0 1.6-0.7 1.6-1.6z"/>
			</g>
		</g>
	</g>
	<g id="Layer">
		<g id="Layer">
			<g id="Layer">
				<path id="Layer" class="s0" d="m123.6 33v3.2l-2.3-3.2h-1v5.2h1.1v-3.2l2.3 3.2h1v-5.2z"/>
			</g>
		</g>
	</g>
	<g id="Layer">
		<g id="Layer">
			<g id="Layer">
				<path id="Layer" class="s0" d="m127.2 38.3c1 0 1.9-0.6 1.9-1.7 0-1.1-1-1.4-1.7-1.6-0.6-0.1-1-0.2-1-0.6 0-0.3 0.3-0.4 0.7-0.4 0.4 0 0.8 0.2 0.8 0.6h1.1c0-1-0.7-1.6-1.9-1.6-1.1 0-1.8 0.5-1.8 1.5 0 1.1 0.9 1.3 1.7 1.5 0.5 0.1 1 0.2 1 0.6 0 0.4-0.4 0.6-0.8 0.6-0.5 0-0.9-0.2-0.9-0.7h-1.1c0 1.1 0.8 1.8 2 1.8z"/>
			</g>
		</g>
	</g>
</svg>